<svg version="1" xmlns="http://www.w3.org/2000/svg" width="3209.333" height="3209.333" viewBox="0 0 2407.000000 2407.000000"><path d="M21.5 36c-.3.5-.1 1 .4 1 .6 0 1.1-.5 1.1-1 0-.6-.2-1-.4-1-.3 0-.8.4-1.1 1zM.8 40.7c.7.3 1.6.2 1.9-.1.4-.3-.2-.6-1.3-.5-1.1 0-1.4.3-.6.6zM5.5 77c.3.5.8 1 1.1 1 .2 0 .4-.5.4-1 0-.6-.5-1-1.1-1-.5 0-.7.4-.4 1zM1639.5 126.3c-.8.4-1.9.6-2.4.2-.5-.3-1.3 0-1.6.6-.4.5-1.3.8-2 .5-.7-.2-1.6.2-1.9 1-.3.8-1.3 1.4-2.2 1.4-1 0-2.5.7-3.5 1.6-1.1 1-3.5 1.6-5.9 1.6-2.2 0-4 .3-4 .7 0 .4-3 .6-6.6.4-5.1-.3-7.2 0-9.3 1.4-1.6 1.1-4.5 1.8-7.6 1.8-3.7 0-5.8.7-8.2 2.4-1.7 1.3-3.6 2-4.2 1.7-.6-.4-.9-.1-.6.6.3.8-.4 2.3-1.6 3.3-1.1 1.1-3.6 3.5-5.4 5.2-3.8 3.7-5 4-6.3 1.7-.8-1.5-1-1.5-1.5 0-.4.9-1.5 1.6-2.4 1.6-1 0-2.7.9-3.6 2.1-1.1 1.2-2.5 1.8-3.3 1.5-.9-.4-1.4-.1-1.2.5.4 1.3-7.9 9.9-10.4 10.7-3.4 1.1-7.3 4.3-7.8 6.3-.5 1.9-1.2 2.4-3.8 2.4-2.5 0-3.2.4-3.2 1.9 0 1.1-.3 1.7-.6 1.3-.3-.3-1.8.5-3.2 1.9-1.5 1.3-3.4 2.4-4.3 2.4-.8 0-2.8 1.6-4.4 3.5-1.9 2.5-3.3 3.4-4.5 3-1-.3-2.1-.1-2.5.5-.3.6-1 .8-1.5.5-.5-.3-1.1.3-1.4 1.2-.6 1.7-7 5.3-9.4 5.3-.7 0-1.2.6-1.2 1.3 0 .7-1.3 2.6-3 4.2-1.6 1.6-3 3.5-3 4.2 0 .7-1.5 2-3.2 2.9-4.2 2.1-6.9 4.5-6.3 5.5.6.9-9.9 11.9-11.4 11.9-.6 0-1.1.3-1.1.7 0 1.3-10.8 12.3-11.9 12.3-.6 0-1.1.6-1.1 1.3 0 1.8-2.5 4-7.6 6.6-2.2 1.2-5.1 3.3-6.4 4.6-1.3 1.4-3.4 2.5-4.7 2.5-2.5 0-2.9 1-1.1 2.8.9.9.8 1.2-.5 1.2-1.8 0-5.4 4.7-4.4 5.7.4.3.1 1.1-.7 1.7-.8.6-2.5 3.2-3.9 5.8-3.6 6.5-13.7 17.7-15.9 17.8-.5 0-.8.6-.8 1.4 0 .7-.7 2-1.6 2.7-.9.7-2 2.3-2.4 3.4-.5 1.2-2.3 2.9-4.2 3.8-1.8.9-2.9 1.7-2.4 1.7.6 0 .1.8-1 1.9-4.6 4.4-12 14.1-12.8 16.8-.4 1.2-1.8 3.1-3.2 4.2-1.4 1.1-2.5 2.1-2.4 2.3.1.2-.2 1.2-.5 2.3-1.9 5.6-2.9 8.1-4 9.5-.7.8-2.1 3.7-3.1 6.3-1.2 3-3 5.5-4.9 6.7-1.6 1-3.8 3.4-4.7 5.2-1.8 3.6-7.1 19.3-8.2 24.5-.4 1.7-1.4 3.7-2.2 4.4-.8.7-1.2 2-.9 3 .4 1.1.2 1.9-.3 1.9-1.3 0-2.3 7.3-1.6 11.9.5 3.1 1.3 4.2 4.5 6 3.1 1.8 4.2 2 6 1.1 1.3-.7 3.8-.9 6.3-.6l4.2.7 2.2-4.8c1.1-2.6 2.6-7.1 3.3-9.8.7-2.8 2-6.9 3-9.2 1.1-2.4 1.9-4.7 1.9-5.2 0-2.2 3.9-8.9 7.3-12.5 2-2.2 3.7-4.9 3.7-5.9 0-1.1 2.1-4 4.6-6.6 2.6-2.5 5-5.7 5.5-6.9.5-1.3 1.8-2.6 2.9-2.9 1.1-.3 2-1.1 2-1.8 0-2 2.9-7.3 4.4-7.8 1.1-.4 8-10.9 11.1-16.8.5-1 1.5-1.9 2.2-1.9 1.2 0 1.8-2.5 1.4-5.7-.1-.6.9-1.5 2.1-1.8 2.9-.9 6.8-4.4 6.8-6.2 0-1.6 3.6-5.3 5.3-5.3.6 0 2.1-1.2 3.2-2.6 1.1-1.4 3.2-4 4.8-5.8 1.5-1.9 2.7-3.7 2.7-4 0-.8 3.5-4.2 14-13.6 4-3.6 10-9.2 13.5-12.5 3.4-3.3 8.7-8.3 11.7-11.1 3.3-3 6-6.5 6.7-8.7.7-2 1.8-3.7 2.5-3.7s2.3-1.1 3.6-2.5c1.3-1.4 2.8-2.5 3.5-2.5.6 0 1.9-1.4 2.8-3 1-1.7 2.4-3 3.2-3 2.4 0 15.5-12.1 15.5-14.3 0-2.1 2.2-3.6 6.5-4.3 5.5-.8 11-4 13.7-7.9 1.2-1.9 3-3.5 3.9-3.5.9 0 2.2-.7 2.9-1.5.7-.8 2.1-1.5 3.1-1.5 1.1 0 1.8-.5 1.6-1.1-.1-.6 1.2-1.6 2.8-2.3 1.7-.6 4.2-2.3 5.7-3.8 1.4-1.5 3.8-3 5.2-3.4 1.4-.3 2.8-1.5 3.1-2.5.4-1 1.7-2.2 3.1-2.5 1.3-.3 2.4-1.2 2.4-2s.8-1.4 1.8-1.4c.9 0 2.6-.7 3.6-1.5 1.1-.8 2.6-1.5 3.4-1.5 2 0 11.9-4.7 12.7-6 .3-.6 2.6-1 4.9-1 2.4 0 5.7-.7 7.2-1.5 1.6-.8 3.9-1.5 5.1-1.5 1.2 0 2.5-.5 2.8-1 .3-.6 2.6-1 5-1 3 0 4.5-.5 4.9-1.6 1-2.7 5.9-1.3 7.5 2.1.8 1.6 2.7 4.5 4.3 6.3 3.1 3.6 3.4 5.5 1.4 9-1 1.9-1 3.3.2 7.9 1.3 5.2.9 12-.6 9.6-.4-.6-.6 4.9-.5 12.3.1 11.2-.2 14-1.7 17.1-1 2.1-1.5 4.2-1.2 4.8 1.1 1.6.1 11.9-1.2 12.7-.6.4-1.2 2.2-1.3 4-.1 3.8-1 13.3-1.7 19.4-.3 2.2-1 5.2-1.5 6.5-.5 1.4-.7 3.6-.4 5 .3 1.7-.2 3.2-1.3 4.3-1.3 1.4-1.8 3.6-1.9 9-.1 5.7-.6 7.9-2.3 10.3-1.2 1.7-1.9 3.3-1.6 3.6.3.3-.1 2-.9 3.9-.8 1.8-2 4.9-2.7 6.8-1.5 4.3-5.3 12.3-6.1 13-1.5 1.2-3 5.3-2.5 6.6.3.9-.1 2.8-.9 4.4-.8 1.6-1.7 4.6-2 6.7-.3 2.1-1.1 4.3-1.9 4.8-.8.6-1.7 2.9-2.1 5-.4 2.2-1.5 5.2-2.6 6.7-1 1.5-1.9 3.2-1.9 3.9 0 .6-.9 2.2-1.9 3.5-1.1 1.4-1.7 3.3-1.4 4.4.3 1.2-.1 2.8-.9 3.8-1.6 1.7-4.8 10.5-4.8 12.9 0 .7-1 3.5-2.2 6.1-1.3 2.6-2.1 5.5-2 6.4.2.9-.5 2.9-1.4 4.4-1 1.4-1.9 3.4-1.9 4.3-.4 3.5-2.8 10.7-4 12.1-.8.8-1.2 2.9-1 4.5.5 4-3.1 14.1-6.8 18.8-2.4 3.1-2.8 4.4-2.4 7.3.4 2.1 0 4.5-.9 6.2-.7 1.5-1.4 3.7-1.4 4.9 0 1.3-.4 2.3-.9 2.3s-1.1 1-1.4 2.2c-.8 3.4-3.6 11-4.7 13-.6 1-1 2.8-1 4.1 0 1.3-.9 3.2-2 4.2s-2 2.4-2 3.2c0 .8-.4 1.2-.9.8-.5-.3-1.2-.1-1.5.4-.4.5-.2 1.2.3 1.6.6.3.2 2.4-1 5.2-1.1 2.6-2 6.7-2.1 9.2 0 2.7-1 6.2-2.4 8.7-1.3 2.4-2.4 5.7-2.4 7.4 0 1.7-1.4 5.8-3 9.1-1.9 3.8-3.2 7.9-3.4 11.2-.4 5.6-.9 7.7-3.2 11.9-.8 1.4-1.4 3.4-1.4 4.5 0 1-1.1 3.4-2.4 5.4-1.6 2.3-2.5 5.3-2.7 8.5-.1 2.7-1.1 6.5-2 8.4-1.2 2.4-1.7 5.2-1.5 9 .1 3-.3 7.9-1.1 10.8-.7 3-1.1 5.7-.9 6.1.3.4.1 3.6-.4 7.1-.5 3.5-.5 7-.1 7.9.4.9.5 2.9.1 4.6-1 5 1.2 10.8 4.8 12.6 1.8.9 3.7 2.1 4.4 2.7.8.6 4.6 1.3 8.7 1.5 4 .3 7.6.8 8 1.3.3.5 3.8 1 7.6 1 7.2.2 10.9.6 20.5 2.2 3 .6 5.9.7 6.4.4.5-.3 2.5-.6 4.5-.8 2-.1 5.6-.5 8.1-.9s5.4-.8 6.5-.9c1.1-.2 3-.8 4.2-1.4 1.2-.7 3.8-1.2 5.8-1.2 1.9 0 4.7-.7 6.1-1.6 1.3-.9 2.7-1.4 3.1-1.1.3.3 2.6-.4 5.2-1.7 2.5-1.3 6.9-3.1 9.7-3.9 2.7-.8 7.3-2.4 10.2-3.6 2.9-1.1 7.4-3 10.2-4.1 2.7-1.1 5.3-2 5.7-1.9.4.1 1 .1 1.3 0 .3-.1 2.3-.4 4.5-.6 4.1-.5 5.9-.8 13.5-2.4 8.6-1.9 9.9-2.3 11.1-3.7.8-1 1.5-1.1 2.4-.4.9.7 2.9.6 6.6-.4 3-.7 5.9-1.1 6.4-.7 2.1 1.3 9.1.7 12.3-1.1 1.8-1 4.6-1.8 6.2-1.8 1.6 0 3.1-.4 3.5-1 .3-.5 1.2-.7 1.9-.4.8.3 2.7-.1 4.3-.9 1.5-.8 5.3-1.8 8.4-2.1 3.6-.5 6.3-1.4 7.4-2.6.9-1 3.6-2.1 6.1-2.5 2.7-.4 4.4-1.1 4.4-2 0-.8 1.3-1.5 3.3-1.7 2.2-.2 3.5-1 4.2-2.5 1-2.4 3.5-3.9 3.5-2.3 0 .6.7 1 1.5 1s1.5-.4 1.5-.9c0-.4 2-1.6 4.5-2.6 2.5-.9 5.3-2.7 6.1-4 .9-1.4 3-2.6 5.2-3 4.6-.9 8.7-3 10.4-5.3.7-1 3.2-2.7 5.6-3.7 2.3-1 4.2-2.2 4.2-2.7 0-.4 1.2-1.4 2.8-2.2 1.5-.9 6.3-5 10.7-9.2 4.4-4.2 9.1-8.3 10.5-9.2 1.4-.9 2.9-2.2 3.3-2.9.4-.7 1.4-1.3 2.2-1.3.7 0 1.6-.9 2-1.9.3-1.1 2.2-3.2 4.3-4.7 2-1.5 4.5-3.6 5.5-4.6 1-1 2.3-1.8 3-1.8.7 0 3.4-2.1 6-4.6 2.6-2.5 6.4-5.2 8.4-6 2-.9 5.7-3.5 8.2-5.9 5.6-5.3 9-8 11.4-8.8.9-.4 2.1-1.7 2.6-3 1.2-3.1 3.5-4.9 5.5-4.1.9.4 1.6.1 1.6-.7 0-1.3 5.8-6.9 7.2-6.9 1.6 0 10.7-7.2 18.7-14.8 2.5-2.3 5.1-4.2 5.8-4.2.7 0 1.7-.9 2.3-1.9.5-1.1 2.4-2.2 4.1-2.6 2-.5 2.9-1.2 2.5-2-.3-.8.8-2.2 2.7-3.3 1.8-1 5.8-4 8.9-6.5 3.2-2.6 6.4-4.7 7.2-4.7.9 0 3.4-1.8 5.6-4 2.2-2.2 4.7-4 5.4-4 .8 0 1.6-.7 2-1.5.3-.8 1.1-1.5 1.9-1.5.7 0 2.6-1.4 4.2-3 1.6-1.7 3.5-3 4.2-3 .7 0 1.3-.4 1.3-.9s2.5-2.2 5.7-3.7c8.6-4.4 10.7-5.7 13.2-8.1 1.3-1.2 2.9-1.9 3.7-1.6.8.3 1.4-.1 1.4-1s1.3-1.8 3.3-2.2c1.7-.4 4-1.6 5-2.6s3-2.1 4.5-2.5c4.1-.9 9.2-3.4 9.2-4.4 0-.6.8-1 1.8-1 2.2 0 11.2-5.6 11.2-7 0-.5.6-1 1.3-1 .8 0 2.2-.9 3.2-2 1.1-1.2 3.1-2 5-2s3.9-.8 5-2c1-1.1 2.3-2 2.8-2 .6 0 2-.9 3.2-2 1.1-1.1 3-2.1 4-2.3 2.5-.5 4.4-1.3 12-4.8 5.8-2.7 6.9-3.4 12.6-7.1 4.3-2.8 11.1-4.9 17.7-5.3 3.8-.2 6.9-1 7.8-1.9.8-.8 3-1.8 4.9-2.2 1.8-.3 4.1-1.5 5.1-2.5.9-1 2.5-1.9 3.4-1.9 2.1 0 8.1-6.7 7.4-8.4-.3-.8.4-1.6 1.5-1.9 1.2-.3 2.1-1 2.1-1.5 0-.6-.9-.8-2-.5-1.4.4-2.9-.3-4.5-2.1-1.4-1.5-3-2.4-3.5-2.1-.6.3-1 0-1-.7 0-2.3-13.4-1.2-16.7 1.4-.7.6-1.3.4-1.6-.4-.4-1-.8-1-1.4-.1-.8 1.1-17.6 8.3-19.4 8.3-.4 0-2 .5-3.6 1.1-1.5.7-3.5 1.3-4.3 1.4-4.5.7-11.6 3.1-12.3 4.2-.4.6-2.9 2.2-5.5 3.5-2.6 1.2-5.8 3-7.1 4-1.3 1-3.1 1.8-4.1 1.8-.9 0-3.2.8-5.1 1.7-3.8 1.9-5.6 2.5-8.3 2.4-1 0-2.5.7-3.3 1.5-.8.7-2.3 1.4-3.3 1.4s-2 .7-2.4 1.5c-.4 1.1-1.3 1.4-3 .9-1.3-.3-2.7-.1-3 .5-.4.6-2.4 1.8-4.4 2.8-2 .9-5.5 3.4-7.6 5.4-2.3 2.2-5.6 4.2-8.2 4.8-4.4 1.1-7.8 3.6-6.9 5.1.3.4-.1.7-.8.6-2-.2-9.6 3.8-9.7 5.1 0 1.1-5.1 3.3-7.7 3.3-.8 0-2.6.8-4.1 1.9-9.7 6.7-17.3 11.1-18.2 10.6-.5-.3-1-.2-1 .3s-.8 1.2-1.7 1.5c-1 .4-3.6 1.8-5.8 3.1-2.2 1.4-5.4 3.3-7.2 4.3-2 1-3.4 2.7-3.8 4.2-.4 2.1-1.7 3-5.7 4.5-3.3 1.1-6.8 3.5-10 6.7-2.7 2.7-5.3 4.9-5.8 4.9-.6 0-1 .4-1 1 0 .5-.7 1-1.5 1s-1.5.4-1.5.9-1.6 1.6-3.6 2.6c-1.9.9-3.8 2.4-4.1 3.3-1.7 4.5-5.5 9.2-7.4 9.2-1.2 0-2.3.8-2.6 1.9-.3 1.3-1.1 1.7-2.4 1.4-1.3-.4-2.8.2-4 1.6-1.1 1.1-2.4 2.1-2.9 2.1s-3 1.8-5.7 4c-2.6 2.3-5.9 5-7.1 6-1.3 1.1-2.5 2-2.7 2-.2 0-1.9 1.3-3.7 3-1.8 1.6-3.8 3-4.4 3-1.5 0-8.9 6.9-10.2 9.6-.6 1.1-3.7 3.3-6.9 4.9-3.2 1.6-6.3 3.6-7 4.5-.6.8-1.4 1.2-1.8.9-.6-.7-1.3-.2-9.5 7.1-2.5 2.2-5.4 4.8-6.6 5.7-1.1 1-2.3 2.3-2.5 3-.5 1.3-11.8 13.3-12.6 13.3-.2 0-2.6 2.1-5.1 4.7-5.2 5.5-8.1 7.2-12.4 7.5-1.6.1-3.2.6-3.4 1-.3.4-1.4.8-2.5.8-1 0-1.9.4-1.9 1 0 .5-.7.7-1.5.4-.8-.4-1.5-.2-1.5.2 0 .9-2.2 2.1-15.5 8.5-3.8 1.8-7.3 3.8-7.7 4.4-.4.5-2.9 1.1-5.5 1.2-2.6.2-5.9.4-7.3.6-1.4.2-5.2.7-8.5 1.2-3.3.4-7.5 1.6-9.3 2.6-2.1 1.2-4.2 1.7-5.7 1.3-1.3-.3-4.1 0-6.2.7-3.6 1.2-10.1 1.9-18.5 1.9-2 0-4 .5-4.3 1-.8 1.3-4.8 1.3-6.2-.1-.7-.7-1.9-.3-3.9 1.4-3.6 2.9-6.9 3.8-9.9 2.7-1.2-.5-2.6-.5-3.1-.1-1.5 1.4-5.8 2.1-7.2 1.2-.8-.5-3.6.3-7 2.1-3.1 1.5-6.6 2.8-7.8 2.8-1.2 0-4.2 1.6-6.7 3.5-3 2.3-5.7 3.5-7.7 3.5-2.3 0-4.1 1.1-7.6 4.6-3.7 3.8-5.2 4.7-8.6 5-2.3.2-4.6.8-5.2 1.4-.5.5-2.1 1-3.4 1-2.6 0-9.2 1.6-12.7 3.1-4.1 1.7-13.8 2.4-21 1.5-3.4-.4-5.4-1.2-6.4-2.6-.8-1.2-2.5-2-4.3-2-1.7 0-4.5-.7-6.3-1.6-3.3-1.5-3.3-1.7-3.2-7.8 0-3.4-.2-6.7-.6-7.3-.4-.6 0-1.3.8-1.7.8-.3 1.5-1.4 1.5-2.5s.5-2.3 1-2.6c.6-.3 1-1.6 1-2.8 0-1.3.6-3.2 1.4-4.3.8-1.1 1.4-4.1 1.4-6.6-.1-2.9.5-5.2 1.4-6.2.9-.8 2.1-3.8 2.8-6.6.7-2.7 1.6-5.3 2.1-5.6.5-.3.7-1.5.4-2.7-.3-1.2.6-5.8 2-10.2 1.5-4.4 2.9-11.2 3.2-15 .3-3.9 1.2-7.9 1.9-9 .8-1.1 1.4-3.1 1.4-4.5 0-1.5 1.6-5.7 3.5-9.6 1.9-3.8 3.5-8.3 3.5-10.1 0-1.7.5-3.5 1-3.8.6-.3 1-1.7 1-3s.5-2.7 1-3c.6-.3 1-1.4 1-2.3 0-1 1.4-4.5 3-7.9 1.7-3.4 3.4-8.8 4-12 1.7-10.4 2.2-12.3 3.1-11.7 1.4.8 4.9-7.6 4.9-11.8 0-3.4 2-6.8 4-6.8.5 0 1.4-1.7 2-3.8.7-2 1.8-4.6 2.4-5.7 1.1-1.8 6-14.3 6.1-15.5 0-.3.4-1.1.8-1.8.5-.6.5-1.6.2-2.2-.3-.5.1-3.5.9-6.7.8-3.1 1.3-5.9 1.1-6.1-.2-.3.4-1.7 1.5-3.2 1.1-1.6 2-4.1 2-5.6s.7-3.5 1.5-4.4c.8-.9 1.6-2.9 1.7-4.3.1-1.5.6-2.7 1-2.7s.8-1.3.8-2.8c0-1.6.8-3.8 1.8-5 1-1.2 2.4-4 3.1-6.4.8-2.4 1.6-5 1.9-5.8.3-.8.6-1.7.7-2 0-.3.9-1.9 1.8-3.7.9-1.8 1.7-4 1.7-5s1.6-5.1 3.5-9.2c1.9-4 3.5-7.7 3.5-8.3 0-.6 1.4-2.7 3-4.8 1.8-2.3 3-5 3-6.8 0-1.7.6-3.7 1.3-4.4.6-.7 1.2-1.8 1.2-2.3 0-3 2.8-15.6 3.6-16.1.5-.3.9-1.4.9-2.4s.5-3.1 1.1-4.7c.7-1.5 1.3-5.7 1.5-9.2.1-3.5.7-6.8 1.3-7.4.6-.6 1.1-2.6 1.1-4.3 0-1.8.5-3.6 1-3.9.6-.4.9-1.4.6-2.3-.3-1-.1-3.5.5-5.7 1.3-4.8 2.9-15.8 3.4-23.5.5-7.1 2.2-17.2 3.6-20.7 1.4-3.8 1.9-12.2 1-19-.5-3.4-.4-6.7.2-8.3.7-1.9.7-5.3-.2-11.1-.7-4.6-1.3-10.7-1.4-13.4-.1-3.1-1.3-7.1-2.9-10.4-1.5-3-2.5-5.8-2.2-6.2.3-.5-.2-.9-1-.9-.9 0-1.6-.8-1.6-1.8-.1-3.7-8.8-11.2-13.1-11.2-2.6 0-7.8-1.8-8.9-3-.7-.9-4.8-.7-6.5.3zM51.3 127.5c-.3.9-.3 1.8 0 2.1.9.9 2.7-.6 2.7-2.2 0-1.9-1.9-1.8-2.7.1zM2116 140c0 .5.4 1 .9 1 .6 0 1.3-.5 1.6-1 .3-.6-.1-1-.9-1-.9 0-1.6.4-1.6 1z"/><path d="M1760.7 297.4c-.6 1.6.2 2.8 1.4 2 1.2-.7 1.1-3.4 0-3.4-.5 0-1.1.6-1.4 1.4zM1213.5 497c-.4.6-1 .8-1.5.5-.5-.3-1.9.4-3.1 1.6-1.3 1.3-2.8 1.9-4.1 1.6-1.1-.3-2.1 0-2.5.9-.3.9-1.9 1.4-4.2 1.4-3.3 0-3.8.4-4.9 3.3-1.6 4.4-1.5 8.4.1 9 2 .7 5.3 8.4 7.2 16.7 1 4.1 2.4 8 3.2 8.7 1.1.9 1.2 1.6.4 3.2-.7 1.2-.7 2.2-.2 2.6.5.3 1.3 1.9 1.6 3.7.4 1.7 1.6 4.5 2.6 6.2 1 1.7 1.9 4.3 1.9 5.8s.4 3 1 3.3c1.2.7 3.4 8.4 3.1 10.7-.1 1 .3 1.8.8 1.8.6 0 1.1.8 1.1 1.7 0 .9.6 2.4 1.3 3.2 1.8 2.2 4 8.9 3.2 10-.3.5-.1 1.2.5 1.6.5.3 1 2.1 1 4s.4 3.6.9 3.9c.5.3 1.2 1.8 1.6 3.3.3 1.6 1.3 3.5 2.1 4.4.7.8 1.5 2.9 1.7 4.6.2 1.7 1.4 4.8 2.6 6.9 1.6 2.6 2.4 5.9 2.6 9.9.3 4.2 1.3 7.9 3.4 12.3 1.7 3.4 3.1 7.1 3.1 8.3 0 1.1.7 3 1.5 4.2.8 1.3 1.9 5.6 2.5 9.7.6 4.1 1.5 7.9 2 8.4.6.6 1 2 1 3.3 0 1.3.4 2.3 1 2.3.5 0 1.3 1.2 1.6 2.7.4 1.5 1.3 3.8 2 5.2.8 1.4 1.4 3.4 1.4 4.3 0 1 .4 1.8 1 1.8.5 0 .7 1.3.3 3.1-.4 2.4-.2 3.4 1 4.1 1 .5 1.7 2 1.7 3.2 0 1.3.9 4.3 2 6.7 1.1 2.4 2 5.6 2 7.1s.6 3.3 1.4 4.1c.8.8 1.3 2.3 1.2 3.3-.2 1 0 2.3.4 2.9.5.5 1 3.1 1.3 5.6.3 2.5 1.2 6.4 2.2 8.5 4.4 10 6 14.7 5.7 17-.2 1.2.5 2.8 1.5 3.6 1 .7 2 2 2.2 2.8.2.8.7 3 1.1 4.8.5 1.8 1.5 4.3 2.4 5.7.9 1.4 1.6 4.5 1.6 7.3 0 3.2.5 5.4 1.5 6.2.8.7 1.5 2.6 1.5 4.3 0 1.7.7 3.9 1.7 4.9 1 1.1 1.6 3.5 1.6 6 0 2.4.4 5.2 1 6.3.9 1.7 2.7 8.7 4.1 16 .3 1.1 1.6 5.1 2.9 8.9 1.4 3.8 2.3 7.4 2.1 8.1-.3.7.2 1.5 1 1.8 1 .4 1.6 1.9 1.6 3.7 0 1.7.5 4.1 1.2 5.3.7 1.2 1.3 4.5 1.3 7.4.1 2.8.7 5.8 1.4 6.7.7.9 1.7 4.2 2.1 7.3.9 6.1 3.7 17.7 5 20.4.4.8.4 2.2-.1 3.1-.6 1.1-.4 2 .6 2.8.8.7 1.5 2.2 1.5 3.5 0 1.2.3 2.4.6 2.8 1.6 1.5 5.4 14.6 5.4 18.4 0 2.4.4 4.3 1 4.3 2 0 7.9 22 9.9 37.1.5 3.7 2 9.2 3.4 12.2 1.4 3.1 2.3 6.5 2 7.6-.3 1.2.2 3.1 1 4.4.8 1.3 1.8 5.4 2.2 9.1.5 4.8 1.4 7.5 3.1 9.5 1.5 1.8 2 3.2 1.4 4.1-.5.8-.4 2.2.2 3.3.6 1.1 1.2 3.4 1.4 5.1 1 6.7 1.4 9.3 2.5 14.1.6 2.7 1.1 5.7 1.1 6.5.1.8.5 2.1 1.1 2.8.6.7 1.2 3.9 1.3 7 .3 4.3.8 6 2.4 7.2 1.3 1 1.9 2.2 1.5 3.2-.4.9.3 4.3 1.4 7.6 1.2 3.2 2.1 7.6 2.1 9.8 0 2.2.7 4.9 1.5 6 .8 1 1.5 3.1 1.5 4.6 0 1.5.5 3 1.1 3.4.6.3.9 2.2.6 4.3-.2 2 .2 4.8 1 6.4 1.3 2.6 1.3 3-.3 4.2-1 .7-2.4 1.1-3.1.8-.7-.3-2.7.2-4.4 1.1-1.8.9-3.7 1.6-4.3 1.6-.6.1-3.6 1.6-6.6 3.5-3 1.9-7.3 4.4-9.6 5.5-2.3 1.2-5.1 3-6.2 4-1.2 1.1-3.4 2-5 2s-3.9.9-5.2 2c-1.3 1.1-3.5 2.3-4.9 2.7-1.4.3-4.3 1.9-6.5 3.5-2.1 1.5-4.9 2.8-6.1 2.8-1.2 0-3.7 1.1-5.6 2.5-1.9 1.3-4.4 2.9-5.7 3.5-1.2.5-2.5 1.7-2.8 2.5-.4.8-1.2 1.5-2 1.5-.7 0-3.1 1.8-5.3 4-2.2 2.2-4.4 4-5 4-.6 0-1.3 1.1-1.7 2.4-.4 1.9-1.6 2.7-5.4 3.6-2.7.7-5.4 1.8-6.1 2.6-.6.8-1.8 1.4-2.5 1.4-.8 0-1.4.4-1.4 1 0 .5-.4 1-.9 1-1 0-4.3 2.9-11.8 10.3-2 1.9-8.5 5.7-9.8 5.7-.8 0-1.5.4-1.5.8s-3.4 2.6-7.6 4.7c-4.3 2.2-8.6 5.2-9.7 6.7-1.2 1.6-2.7 2.8-3.4 2.8-.8 0-1.6.7-1.9 1.5-.3.8-2.3 1.9-4.4 2.5-2 .5-5.3 2.2-7.1 3.8-4.7 3.7-12.8 11.1-16.4 14.8-1.6 1.6-6.8 6.2-11.5 10.1-8.1 6.8-15 12.9-23.4 20.7-2.1 2-4.2 3.6-4.6 3.6-1.8 0-7 5.3-7 7.1 0 2.1-1.3 2.9-5.3 3.2-1.7.1-3.4 1.4-4.9 3.7-1.3 1.9-3.4 3.6-4.6 3.8-1.2.2-2.2.7-2.2 1.2 0 .9-4 5-11.7 12.1-1.5 1.5-4.6 4.7-6.8 7.3-2.2 2.5-6.9 6.8-10.5 9.5-3.6 2.7-8.3 6.8-10.6 9.2-2.2 2.4-5.6 5.8-7.5 7.5-1.9 1.7-3.9 3.9-4.5 5-.6 1-2.1 2.1-3.4 2.2-1.9.3-15 12.5-19.6 18.3-1.6 2-4.5 4.2-7.8 5.9-1.6.8-3.5 2.5-4.4 3.7-.8 1.3-2.1 2.3-2.9 2.3-1.7 0-4.2 2-12.5 10.2-3.2 3.2-6.3 5.8-6.9 5.8-.6 0-2.4 1.1-4.1 2.5-1.6 1.4-3.6 2.5-4.3 2.5-1.8 0-8.3 6.4-12.5 12.3-1.8 2.6-3.6 4.7-4 4.7-.6 0-3.6 2.7-11.5 10.1-1.2 1-2.6 1.9-3.2 1.9-.6 0-1.3.3-1.5.8-.1.4-3.1 2.9-6.5 5.6-3.5 2.7-6.3 5.2-6.3 5.6 0 .4-1.1 1.2-2.5 1.8-2.5 1.2-6.6 4.7-12.9 10.9-1.8 1.8-3.7 3.3-4.2 3.3-1.5 0-6.1 5.2-6.8 7.6-.5 1.7-1.8 2.3-5.1 2.8-2.9.5-4.6 1.3-4.9 2.4-.5 1.5-8.7 7.2-10.4 7.2-.4 0-1.4 1.2-2.3 2.8-.8 1.5-3.7 3.8-6.3 5.2-4.4 2.2-9.6 7.8-14.5 15.4-1.6 2.5-7.8 6.5-14.3 9.4-2.7 1.2-4.8 2.5-4.8 3.1 0 .5-1.5 1.4-3.3 2-3.5 1.2-5 2.6-10.1 9.6-1.7 2.2-5 6.1-7.5 8.7-2.5 2.5-5.5 5.7-6.7 7-1.1 1.3-4.9 4.8-8.4 7.8-3.4 3-7.1 6.4-8.2 7.5-1 1.1-2.9 3-4.1 4.2-1.2 1.3-2.7 2.3-3.3 2.3-.6 0-1.9.9-2.9 2s-2.7 2.2-3.9 2.6c-2.2.7-5.3 2.8-12.9 8.6-2.7 2.1-5.4 3.8-6 3.8-.7 0-2 1.4-2.9 3-.9 1.7-2.3 3-3.1 3-.7 0-2.6 1.4-4.3 3.1-1.6 1.7-4.4 3.7-6.1 4.4-1.8.8-3.3 1.9-3.3 2.5 0 .6-1.1 1.5-2.5 2s-2.5 1.4-2.5 2c0 .5-.7 1-1.6 1-.8 0-2.7 1.3-4.1 3-1.3 1.6-3.1 3-3.9 3-.8 0-1.4.4-1.4.9s-2.1 2-4.6 3.2c-2.5 1.3-5 3.1-5.4 4-.5.9-3.2 2.6-5.9 3.8-2.9 1.2-6.1 3.6-7.7 5.6-1.4 1.9-3.2 3.5-3.9 3.5-.7 0-1.5.7-1.9 1.5-.3.8-1.6 1.5-2.8 1.5-3.5 0-6.8 2.7-6.8 5.6 0 1.7-.5 2.4-2 2.4-1.1 0-3.8 1.1-6 2.5-6.3 4-8.2 3.2-7.2-3.2.8-5.2-2.8-22.3-4.7-22.3-.3 0-.6-2.5-.7-5.6 0-3.5-.5-5.8-1.3-6.4-.9-.5-1.5-3.6-1.8-8.1-.3-4.1-1.1-9.3-1.9-11.7-.8-2.4-1.2-4.7-.9-5.2.8-1.3-1.6-16.3-3.1-19.2-.8-1.4-1.4-3.7-1.4-5.1 0-1.4-.9-4.7-2-7.3-1.1-2.5-2.3-7.4-2.5-10.7-.3-3.4-.7-6.8-1-7.7-.3-.8-.7-3.1-1-5-.3-1.9-.7-4.6-1-6-.3-1.4-1-5.9-1.6-10-.7-4.1-2.5-11.6-4.2-16.5-2.9-8.7-4-14.8-5.6-32.5-.4-4.7-1.3-9.5-1.9-10.7-.7-1.2-1.2-4.2-1.2-6.8 0-2.5-.6-6-1.4-7.8-.7-1.8-1.6-5.5-2-8.2-.4-2.8-1.1-6.4-1.6-8-1.9-6.2-5.8-23.2-6.5-27.7-.3-2.6-1-5-1.6-5.3-.5-.4-.9-2.6-.9-5.1 0-2.6-.5-4.4-1.1-4.4-.7 0-.9-.9-.6-2.1.7-2.8-1-13.1-3.2-19.4-3.4-9.5-4.2-12.6-4.6-16.8-.1-2.3-1.2-6-2.3-8.2-2.4-4.7-5.2-19.6-4.7-25 .2-2.1-.1-4.5-.5-5.4-1.3-2.4-6-18.2-6-20.1 0-1-.7-3.4-1.6-5.5-.8-2.1-1.4-5.2-1.2-7.1.1-1.8-.1-3.6-.5-4-.4-.4-.7-2-.7-3.5s-.4-3.1-1-3.4c-.5-.3-1-1.5-1-2.6 0-1-.4-2.7-1-3.7-1-1.8-3.5-12.3-5.1-20.9-.5-2.9-1.4-6.4-1.9-7.8-.6-1.5-1-3.7-1-4.9 0-1.3-.7-2.9-1.4-3.6-.8-.6-2-3.7-2.7-6.8-.7-3.1-1.9-6.4-2.6-7.4-.8-.9-1.6-3.8-1.8-6.5-.8-10.1-3.2-22.8-4.8-25.8-.6-1.1-1.2-2.9-1.3-4-.3-2.9-2.4-13.5-3.5-17.1-.5-1.7-.9-4.2-.9-5.6 0-1.5-.6-2.8-1.2-3.1-1-.3-1-.9-.2-2.3.6-1.1.8-2.8.3-3.9-.4-1.1-.8-3.4-.8-5.2-.1-1.7-1-5.3-2.1-7.9-1.1-2.6-1.9-5.2-1.7-5.8.2-.6-.2-1.7-1-2.4-.7-.7-1.3-2.7-1.3-4.3 0-1.6-.4-3.7-.9-4.7-1.3-2.6-2.8-8-4.1-14.7-1.5-8-4.2-16.5-5.2-16.5-.4 0-.8-1.1-.8-2.4 0-1.4-.5-2.8-1-3.1-.6-.3-1-1.6-1-2.9 0-1.2-1.1-4.4-2.4-7-1.7-3.4-2.3-5.8-1.9-8.1.3-2.1-.1-4.1-1.1-5.8-.9-1.3-1.8-4.4-2-6.8-.2-2.4-.6-5.2-1-6.1-.4-.9-.5-2.1-.2-2.6s-.5-2.1-1.7-3.6c-1.9-2.2-2.4-4-2.5-9.7-.1-3.9-.8-8.1-1.5-9.2-.6-1.2-1.2-2.7-1.3-3.2 0-.6-.4-3.3-.9-6-.9-4.7-1-5.8-1.4-9.6 0-.9-1.2-2.9-2.6-4.5-2.5-2.9-2.8-7-.9-13.2.3-1.2.2-2.8-.4-3.5-.5-.6-1.5-3-2.2-5.2-.7-2.2-1.7-4.5-2.2-5.1-.5-.7-.8-2.7-.8-4.5.1-3.7-3.1-17.4-4.8-20.5-.6-1-1.4-4-1.7-6.6-.3-2.6-1-5-1.6-5.3-.5-.4-.9-1.9-.9-3.6 0-1.6-.4-3.7-.9-4.7-.5-.9-1.7-5.8-2.5-10.7-.9-5-2.9-13.5-4.5-19-3.5-12.2-5.2-19.2-5.7-22.5-.6-4.9-1.6-9.5-2.2-10.5-.4-.5-.8-4.2-.9-8-.3-12.4-2.1-26.4-4.2-31.6-.5-1.5-.7-3-.3-3.4.3-.3.2-.9-.4-1.3-1.7-1.2-3.6-9.2-4.1-17.6-.2-4.5-.8-8.5-1.2-9.1-.5-.5-.9-4.4-1.1-8.5-.5-16.5-.8-19.7-2.8-24.2-1.5-3.4-3.2-5.3-6.4-7.1-5.2-3.1-10.1-3-20.3.5-6.7 2.3-7 2.5-7.8 6.3-2.1 10.4-1 21.1 2.8 26.9 1.4 2.1 1.4 2.5-.1 3.7-1.4 1.1-1.4 1.4-.1 2.4 1.8 1.3 3.7 7.7 3.7 12.3 0 1.9.6 4.8 1.3 6.5.8 1.8 2.2 5.7 3.2 8.7 1 3 2.2 5.9 2.6 6.5.5.5.9 1.9.9 3.2 0 1.2 1 4.1 2.1 6.3 1.3 2.4 1.9 4.9 1.5 6.3-.7 2.6 1.2 9.8 3 11.3 1.3 1.1 1.4 3.1.1 5.1-.5.7-.5 1.8-.2 2.4.4.6.9 2.5 1.1 4.2.9 9 2.8 17.4 4.3 19.1.9 1 1.6 3.2 1.7 5 .1 1.7.7 5.3 1.4 8.1.7 2.7 1.3 6.7 1.5 8.7.1 2.1 1 4.9 2 6.4.9 1.4 1.8 3.6 2 4.8.1 1.1 1 4.9 1.9 8.2.9 3.4 1.6 7.1 1.6 8.3 0 1.2.4 2.9.9 3.9 2.6 5.4 4.1 9 4.7 11.5.3 1.5 1.3 3.1 2.2 3.6 1.3.8 1.4 1.2.3 2.5-.7.8-1 2-.6 2.6.4.6.9 2.6 1.1 4.3.8 7.7 1.8 11.3 3.3 12.4.9.7 1.2 1.3.7 1.3s-.4.6.2 1.3c.6.7 1.1 3 1 5.2 0 2.2 1 6.7 2.2 10 1.2 3.3 2.4 7.8 2.7 10 .2 2.2.8 4.9 1.3 6 1.2 2.7 2 9.4 2.2 18.5.1 4.5.7 8 1.4 8.8.7.7 1.6 3.2 2 5.7.3 2.5 1 4.8 1.5 5.1.5.3.9 1.4.9 2.5 0 1 .3 1.9.8 1.9.4 0 .8 2.1.8 4.5.2 4.9 3 15.1 4.5 16.1.5.3.9 1.3.9 2.3 0 1 .7 3.2 1.5 4.7.8 1.6 1.5 4.6 1.5 6.6 0 3.9 2 12.9 3.1 13.8.3.3.9 2.7 1.3 5.5.3 2.7 1.1 5.4 1.6 5.9.6.6 1 2.7 1 4.8 0 2.1.7 5 1.6 6.3.8 1.3 1.8 3.9 2 5.7.3 1.8 1.6 5.7 3 8.6 1.3 2.9 2.4 6.5 2.4 8 0 1.6.5 3.3 1.2 4 .6.6 1.2 3.6 1.3 6.6.1 3.2.9 6.5 1.8 8 1 1.4 1.7 3.4 1.7 4.5s.9 2.2 2 2.6c2.3.7 2.5 1.6.8 3.3-1.7 1.7-1.2 11.8.7 14.5.8 1.2 1.5 3.3 1.5 4.7 0 1.4.5 3.1 1 3.6.6.6 1.2 2.8 1.4 5 .8 7.5 2.3 14.3 3.4 15.6.5.7 1.3 3.5 1.7 6.3.7 5.2 1.2 7.4 4 16.5 1.5 5 3.7 14 5.2 21.2.3 1.6.9 2.8 1.3 2.8s.8 1.5.8 3.2c.2 5.9.3 6.8 1.2 6.8.5 0 .8.8.8 1.7-.1 1.7.5 4.3 3.2 13.8.6 2.2 1.3 5.6 1.6 7.5.3 1.9 1.2 6 2.1 9 .8 3 1.8 7.3 2 9.5.3 2.2.9 4.5 1.4 5.1.5.6 1.1 3.2 1.3 5.7.3 2.5 1 5.6 1.7 6.9.7 1.3 1.2 3.1 1 4.1-.1 1 .3 3.4 1 5.5.7 2 1.4 4.1 1.5 4.7 1.5 7.3 2.8 11.4 3.9 13.1.8 1.2 1.3 3.7 1.3 5.5-.1 4.2 2 11.9 3.8 13.8.9 1 1 2 .2 3.7-.8 1.6-.8 2.7 0 3.6.5.7 1 2.9 1 4.8.1 7.1 2.1 17.2 3.6 18.3 1.3 1 1.4 1.9.7 4.5-.9 3-.7 3.7 1.4 5.7 1.4 1.2 2.5 2.9 2.5 3.7 0 .8.3 1.8.8 2.2.4.4.8 1.7.9 2.9.1 1.2.7 4.2 1.3 6.7.6 2.5 1.7 7.9 2.5 12s1.8 8.2 2.2 9c.6 1.5 1.3 8.8 1.3 14.7 0 1.8.4 3.5 1 3.8.5.3.7 1.9.3 3.5-.3 1.7-.1 3.6.5 4.3.6.7 1.5 4.2 2.1 7.7.6 3.6 1.6 9.2 2.1 12.5.6 3.3 1.3 7.6 1.5 9.5.2 1.9 1 5.2 1.9 7.2.9 2.1 1.6 5.1 1.6 6.7 0 1.6.4 3.2.9 3.6 1 .6 2.1 9.1 2.5 18.7.1 3.1.9 6.4 1.7 7.4.9 1.2 1 1.8.3 2.1-1.3.4.8 10.9 2.5 12.6.6.6 1.1 2.4 1.1 3.9s.4 2.8.9 2.8 1.2 2.7 1.6 6c.4 3.3 1.1 6.3 1.6 6.6.5.3.8 3.1.8 6.2-.1 5.5 2.3 19.6 4.1 23.7.9 2.1 1.9 7.7 2.4 13 .3 3.7 1.2 6.8 3.8 12.4 1.4 3.3 1.8 5.6 1.4 8.4-.4 2.4-.2 4.5.5 5.3.9 1.1.9 2.1 0 4-1.7 3.7-1.3 7.5.9 9.9 1.5 1.6 1.8 2.9 1.3 5.9-.3 2.1-1.3 4-2.2 4.4-.9.3-3.1 2.3-4.9 4.4-1.9 2.1-3.9 3.8-4.7 3.8-.7 0-1.9.7-2.6 1.7-.8.9-3.3 2.4-5.5 3.5-2.3 1-4.7 2.5-5.4 3.3-.7.8-1.8 1.5-2.6 1.5-1.4 0-8.6 3.1-9.4 4.1-1.3 1.6-14.5 6-16.4 5.5-2.2-.6-11.6 3.1-11.6 4.6 0 1-4.1 7-5.4 7.9-.5.4-.6 1.1-.2 1.7.3.5-.1 1.5-.9 2.2-1.6 1.3-2.1 5-.7 5 .8 0 10.9 6.2 12.9 8 2.1 1.7 9.1 1.2 11.2-.9 1.1-1.1 4.5-2.5 7.8-3.2 3.2-.7 6.4-1.7 7.2-2.3.7-.5 1.9-1.1 2.6-1.2.6-.1 3-1.3 5.1-2.7 2.1-1.4 5.6-3 7.7-3.7 2-.6 3.7-1.7 3.7-2.4 0-.6 2-1.8 4.5-2.5 2.4-.7 4.9-1.9 5.6-2.7.6-.8 1.8-1.4 2.6-1.4s2.6-.9 4-2 3-2 3.4-2c1.4 0 3.9 6.9 3.9 10.7 0 1.9.4 4.2 1 5.2.5 1 1.2 3.6 1.5 5.7.7 4.6.7 4.6 3.4 18.9 1.2 6 2.6 11.4 3.1 11.9.6.6 1 2 1 3.2 0 1.2.7 3.8 1.5 5.7.8 2 1.5 5.2 1.5 7 0 1.9.7 4 1.5 4.7 1 .9 1.2 1.6.5 2.5-.6.8-.6 2.2.2 4.3 1 2.6 1 3.7 0 5.2-1.7 2.8-1.5 4.2 1.1 7.1 3.3 3.7 4.6 6.4 3.8 7.7-1.8 2.9 1.4 26.7 4.1 29.9.7.9 1.3 3.7 1.4 6.2.1 7.2 3.3 23 6.2 30.1.6 1.5.7 2.8 1 11.2.1 3.5.6 4.8 1.7 4.8 1.8 0 1.9.5.3 2.9-.7 1.1-.8 2.6-.3 3.7 1 2.1 1.1 3.1 1.8 9 .2 2.3.8 4.7 1.2 5.4.4.7.8 3.8.7 6.9-.1 5.1 1.7 13 3.9 17.3.5 1 .9 3.7.9 6 .1 5.3 1.5 11.9 2.8 12.7.6.3 1.3 3.5 1.6 7.1 1 10.8 1.2 11.8 2.5 13.3.6.8 1.1 1.9.9 2.3-.2 1 2.2 11.4 3 12.8.6 1 .9 3.3 1.8 12.1.3 3.3 1 6.4 1.5 7 .5.5.9 2.6.9 4.8 0 2.1.4 4.6.9 5.5.5.9 1.1 4.6 1.4 8.2.3 3.6 1.3 8.5 2.1 10.9.9 2.4 1.4 4.7 1.1 5.1-.3.4.7 1.6 2.1 2.5 1.9 1.2 2.3 1.9 1.4 2.5-1 .6-.9 2.3.4 7.8.9 3.9 1.6 8.9 1.6 11.2 0 2.3.7 5.4 1.5 7 .8 1.6 1.4 3.3 1.3 3.7-.3 1.4 2.3 12.2 3.1 12.7.4.3.7 2 .6 3.8-.4 4.8 1.4 13.6 3.7 18.6 2 4.3 4.7 12.8 5.3 17 .2 1.3 1.1 3 2.1 3.7 1.5 1 1.6 1.6.6 2.7-.9 1.2-.9 1.9.3 3.4.8 1 1.5 3.8 1.5 6 0 2.4.6 4.7 1.5 5.4.8.7 1.5 2.7 1.5 4.6 0 1.8.5 3.6 1 3.9.6.3 1 1.5 1 2.7 0 1.1.6 3.2 1.4 4.6 2.7 5.3 4.6 10.3 4.6 12.2 0 1 .7 2.3 1.6 2.8 1.1.6 1.3 1.1.5 1.6-.6.4-1.1 1.9-1.1 3.4 0 2.9 4.2 12 6.3 13.7 1.5 1.3 1.9 2.8 2.3 8.7.3 5.4.9 6.8 3 6.8.8 0 1.4.9 1.4 1.9 0 1.1.5 2.3 1 2.6.6.3 1 2.1 1 3.9 0 3.2 2.5 10.5 3.9 11.6 1.4 1.1 3.1 6.3 3.1 9.5 0 3 2 6.5 3.8 6.5.4 0 1.5 1.4 2.4 3 1 1.7 2.7 3.4 3.8 3.8 1.1.4 3.5 3.2 5.3 6.2 4.4 7.4 8.5 9.3 19.5 9.4 7.5.1 8.6-.1 10.2-2.1.9-1.2 3-2.5 4.5-2.9 3.8-.9 6.5-3.9 6.5-6.9 0-4-3.7-10.5-6-10.5-1.1 0-2.8-.4-3.8-.9-.9-.5-3.6-1.4-5.9-2-2.6-.7-4.3-1.8-4.3-2.6s-2.5-3.9-5.5-6.8-5.5-6-5.5-6.8c0-.8-1.4-2.8-3.1-4.5-2.6-2.5-3-3.4-2.5-6.5.5-2.8.1-4-1.4-5.4-1.1-1-2-3-2-4.4 0-1.5-.9-4.5-2-6.6-1.2-2.2-2.5-6-3.1-8.5-.6-2.4-1.6-5.1-2.3-6-.8-.8-1.7-2.6-2.1-4-.4-1.4-1.3-3.2-2.1-4-.8-1-1.2-3.7-1.1-7.2.1-4.1-.3-6.1-1.5-7.5-1-1.1-2-3.4-2.2-5.2-.2-1.8-1.3-4.2-2.5-5.5-1.1-1.2-2.1-3.2-2.1-4.3 0-2.2-2.3-8.3-3.7-9.6-.4-.5-.9-3.5-1-6.7-.1-3.5-.8-6.8-1.8-8.3-.9-1.4-1.8-4.5-2-6.9-.3-4.7-1.3-7.8-2.5-7.8-.4 0-1-2.7-1.3-6-.4-3.3-1.4-7.4-2.2-9-.8-1.6-1.6-5.3-1.7-8.1 0-2.9-.7-6.4-1.4-7.8-.8-1.4-1.4-3.6-1.4-4.9 0-1.2-.4-2.2-.9-2.2-.8 0-1.4-2.6-2.5-10.1-.2-1.5-.7-3.7-1.1-5-.4-1.3-.9-4.6-1-7.3-.2-2.8-.8-5.2-1.4-5.4-.6-.2-.8-1.6-.5-3.2.4-2 0-3.4-1.4-4.8-1.1-1.1-2-3.1-2-4.4 0-3.8-.9-12.2-1.5-13.8-.3-.8-1.5-5.3-2.7-10-1.2-4.7-2.6-10.2-3.1-12.3-.6-2-.7-4.2-.4-4.7.3-.5.1-1.1-.5-1.5-.5-.3-1-1.8-1-3.3 0-1.5-.6-3.6-1.3-4.7-.8-1.1-1.5-4.5-1.6-7.5-.1-3-.8-6.1-1.4-6.9-.7-.8-1.1-2.3-.9-3.3.5-2.8-1.8-16.1-3-17.6-.6-.6-1.1-3.3-1.2-5.9 0-2.5-.6-4.8-1.3-5-.6-.2-.9-1.5-.7-2.9.3-1.6 0-2.4-1-2.4-2.4 0-2.8-1.8-1-5.2 1.3-2.5 1.4-3.8.6-6.2-.6-1.7-1.4-5.8-1.8-9.1-.3-3.3-1.8-10.8-3.4-16.6-1.5-5.8-2.6-12.1-2.5-13.9.1-1.9-.4-4.5-1.1-5.9-.7-1.3-1.1-2.8-.8-3.2.9-1.5-3.4-24-4.9-25.7-.8-.9-1.6-2.8-1.6-4.2-.1-5.8-1.4-15.1-2.4-16.7-.4-.6-.9-4.3-1.2-8.2-.6-7.9-1.9-12.1-3.5-12.1-.7 0-.9-1.7-.5-4.6.4-3.6.1-5.1-1.2-6.6-1.5-1.7-1.5-2.5-.4-7.9 1.1-5.3 1-6.4-.4-8.6-1.1-1.7-1.5-3.6-1.1-5.6.4-2.1-.2-4.6-2.1-8.6-1.4-3.1-2.6-6.5-2.5-7.6.1-1.1-.5-2.9-1.2-4.1-.8-1.1-1.7-5-2.1-8.7-.4-3.7-1.5-8.3-2.5-10.2-1.2-2.4-1.6-4.8-1.3-7.8.3-2.6 0-5.4-.8-6.8-.7-1.3-1.8-5.1-2.4-8.4-.7-3.3-1.8-8-2.5-10.5-1.1-4-1.1-5 .5-8.3.9-2 4.6-6 8.1-8.9 3.5-2.8 7.1-6.2 7.9-7.5.9-1.3 2.5-2.3 4-2.3 1.3 0 3.9-1.4 5.7-3 1.8-1.7 3.9-3 4.6-3 .7 0 2.6-1.2 4.2-2.7 3.2-3.3 6.5-5.3 8.2-5.3.8 0 2.2-1.1 3.2-2.5s2.7-2.5 3.8-2.5c1 0 3-1.1 4.3-2.4 1.3-1.4 3.2-2.7 4.2-3 1-.4 4.3-2.9 7.2-5.6 3-2.8 6-5 6.6-5 .5 0 1.6-.9 2.3-2 .7-1.1 1.7-2 2.3-2 .6 0 2.8-1.4 4.9-3 2.1-1.7 4.4-3 5.1-3 .7 0 3.2-2 5.6-4.5 2.3-2.5 4.8-4.5 5.6-4.5.7 0 2.4-1.3 3.7-2.8 1.4-1.5 4-3.4 5.8-4.1 1.8-.8 3.2-2.1 3.2-3.1 0-1.1 2.2-2.9 6.1-4.9 3.4-1.8 7.3-4.6 8.8-6.3 4.5-5.4 15.2-15.8 16.2-15.8.5 0 5-4 10-9 4.9-4.9 9.2-9 9.5-9 1.2 0 7.4-5.6 7.4-6.7 0-.6.9-1.4 1.9-1.8 1.1-.3 4.9-3 8.6-6 3.7-3 7.2-5.5 7.9-5.5.6 0 5.2-3.9 10.1-8.6 5-4.7 10.2-9.2 11.7-9.9 1.4-.8 3.6-2.8 4.7-4.4 1.2-1.6 4.2-4.3 6.8-6 5.4-3.6 10.8-8.4 14.3-12.9 1.4-1.8 2.8-3.2 3.3-3.2 1 0 21.7-17 21.7-17.8 0-.4 1.7-1.8 3.8-3.1 5.1-3.4 9.2-7.2 9.2-8.7 0-.7.9-1.6 2-1.9 1.1-.3 2-.9 2-1.3 0-2.1 8-9.1 11.6-10.1 2.1-.6 5.5-2.5 7.4-4.2 1.9-1.7 4.9-3.8 6.5-4.7 3.9-2 14.3-11.9 16.1-15.3.7-1.5 3.6-4.1 6.4-5.8 4.1-2.6 13.2-10.9 18.5-17 1.9-2.2 7-6.1 8-6.1.6 0 2-1.6 3.3-3.6 1.4-2.1 2.9-3.4 3.7-3 .8.3 5.2-3.3 10.7-8.7 5.2-5.1 11.6-11 14.2-13.2 2.6-2.2 10.3-9.2 16.9-15.6 17.5-16.6 22.3-20.9 23.3-20.9 1.2 0 6.4-4.5 6.4-5.6.1-1.7 4.6-6.4 7.8-8.2 3.5-1.9 10.7-8.6 13.6-12.6 1-1.4 2.4-2.6 3.1-2.6.7 0 3.3-1.8 5.8-4s4.9-4 5.3-4c.4 0 1.4-.7 2.3-1.5 3.5-3.5 8.4-7.4 13.1-10.6 3.5-2.4 5-4.1 5-5.7 0-1.7.7-2.4 3-2.9 1.7-.3 3-.9 3-1.4 0-.5.5-.9 1.1-.9 2.1 0 6.4-3.8 22.7-20.2 13.1-13.1 17.4-16.8 19.4-16.8 4 0 16.8-7.2 22.5-12.7 3-2.9 5.6-5.3 5.8-5.3.2 0 1.6-1.1 3.1-2.5s3.4-2.5 4.3-2.5c.9 0 2.7-.9 4.1-2 1.4-1.1 3-2 3.6-2 2.1 0 3.8-3.1 3.8-6.8l.1-3.7h8c8.5-.1 10.7-.7 9.9-2.9-.4-1 .5-1.6 2.6-2.1 3.1-.7 8-5 8-7 0-.6 1.8-2.4 4-4.1 2.2-1.6 4-3.2 4-3.7 0-.4.9-.7 1.9-.7 1.1 0 2.9-1.2 4.1-2.7 1.7-2.2 2.8-2.7 5.7-2.4 2.7.2 4.7-.5 8.7-3.3 2.8-1.9 8.2-4.5 11.9-5.6 3.7-1.1 6.7-2.5 6.7-3 0-2.8 2.4-.3 4.6 4.7 1.4 3.2 3.4 7.6 4.5 9.9 1 2.2 1.9 4.8 1.9 5.8 0 .9.4 2.5.9 3.5.6 1 1.2 4.4 1.5 7.7.7 6.6 1 8.5 2.5 12.9 2 6.4 3.5 13.3 4.2 20.5 1.2 11.3 3.6 27.1 4.8 31 .6 1.9 1.1 5.7 1.1 8.3 0 3.2.8 6.5 2.4 9.6 3.5 6.6 7.9 18.9 7.2 20-.9 1.4 2 16.3 3.7 19.8.9 1.6 1.5 4.4 1.5 6.1-.1 1.8.6 4 1.4 5 .9.9 1.8 3.5 2.1 5.7 1.1 7.7 2.4 13.4 3.4 14.7.6.7 1.3 3.1 1.7 5.3.4 2.2 1.3 7.8 2.1 12.5s2.1 11.9 3 16c.8 4.1 1.9 10.2 2.5 13.4.6 3.2 1.5 6.7 2 7.7.6 1 1 2.7 1 3.8 0 1.2.4 2.1.9 2.1s.9 1.5.8 3.3c0 1.9.8 4.5 2.2 6.3 2 2.8 2.1 3.5 1.1 7.4-.8 3-.8 5-.1 6.9 2.6 6.6 3.9 12.4 4.5 20.6.3 2.7 1.3 7.5 2.4 10.5 5 14 7.3 21.8 7.6 25.7.2 2.3.8 4.9 1.5 5.7.6.7 1.1 1.8 1 2.2-.8 3.1 2.3 24.7 4.1 28.9.5 1.1 1.1 4 1.4 6.5.2 2.4 1.2 4.9 2 5.6.9.6 1.6 2.4 1.6 3.9s.4 5.5 1 8.9c.5 3.3 1.4 9 2 12.6.5 3.6 1.5 8.7 2.1 11.5.6 2.7 1.1 5.7 1.1 6.5 0 .8.5 3.3 1.2 5.5.8 2.2 1.9 6.7 2.6 10 .6 3.3 1.6 7.6 2.1 9.6s.9 4.9.9 6.5c0 1.6.7 3.8 1.5 4.8.8 1.1 1.5 3.4 1.5 5.1 0 3.6 1.5 8.7 3.6 12.8.9 1.5 1.2 3.6.9 4.7-.4 1.1.3 5 1.5 8.6 1.3 3.8 2 7.7 1.7 9.3-.3 1.6.1 4 1 5.7 1.6 3 2.6 8.3 4.3 22.4 1.7 14.2 2.8 20 4.4 21.5.8.9 1.7 4.5 2.1 9.2.4 5.3 1.4 9.3 3.1 12.4 1.4 2.8 2.7 7.3 3 11 .4 3.5 1.2 7.1 1.9 7.9.7.8 1.3 3.1 1.3 5s.5 4.8 1.1 6.3c.6 1.6 1.1 6.1 1.1 10.1 0 6 .4 7.9 2.3 10.7 1.3 1.9 2.2 4 2 4.6-.2.6.4 1.7 1.5 2.5 2 1.4 4.2 8.6 4.2 13.7 0 1.6.4 3.2.9 3.6.5.3.7 2.1.4 4-.4 2.4-.1 4.1 1 5.3.8.9 1.8 3.2 2.2 5 .3 1.7 1 3.2 1.5 3.2s.6 1.6.3 3.5c-.3 2.1-.1 3.5.5 3.5 1.4 0 2.4 4.4 2.7 12 .1 3.7.7 6.6 1.4 6.8.6.2 1.1 1.7 1.1 3.3 0 3.1 2.2 8.2 4.8 11.2 1 1.1 1.6 4.1 1.8 8 .3 8.8 1.2 13.3 3.3 17.5 1 2 1.6 4.3 1.4 4.9-.3.7.3 2.3 1.1 3.5.9 1.2 1.6 3 1.6 3.9 0 .9.9 2.3 2.1 3 1.7 1.2 2.3 3.1 3 9.9.5 4.7 1.4 8.9 1.9 9.4.6.6 1 2.1 1 3.3 0 1.3 1.1 3.4 2.3 4.7 1.5 1.5 2.6 4.1 3.1 7.2.3 2.8 1.5 5.7 2.7 7.1 1.6 1.7 2 3 1.6 5.3-.5 2.3-.2 3.5 1.4 5.1 1.1 1.1 1.7 2.4 1.4 2.8-.2.5 1.5 4.9 4 9.9s4.5 9.7 4.5 10.5c0 .9.6 2.2 1.3 2.9 1.5 1.6 5.7 11.8 5.7 13.8 0 .9.9 3.2 2 5.3 1.1 2 1.7 3.7 1.4 3.7-.4 0 .1 1.1 1 2.5.9 1.3 1.6 4.1 1.6 6.1 0 2.1.6 4.5 1.3 5.3.8.9 2.2 4.5 3.2 8.1 1 3.6 2.6 7.2 3.6 8.2 1.1.9 1.9 2.2 1.9 3 0 .8.4 1.8.9 2.3.5.6 1.1 2.1 1.3 3.5.2 1.6 1 2.6 2.3 2.8 2.6.4 7.5 9.9 6.8 13.4-.3 1.8.3 3.2 2.6 5.4 1.7 1.6 3.1 3.3 3.1 3.9.1 2.4 4.1 5.7 7.5 6 7.3.7 17.5-3.5 17.5-7.2 0-.7.7-2.4 1.6-3.7 1-1.6 1.2-2.6.5-3.1-.6-.3-1.1-1.5-1.1-2.6 0-1.3-.7-1.9-2.2-1.9-1.7 0-1.9-.3-1-1.2 2-2 1.4-3.5-1.8-4.8-3.6-1.5-4.1-2.1-4.6-6.3-.5-3.5-5.2-13.7-6.9-15-.5-.4-1.8-.5-2.9-.3-1.7.4-1.8 0-1.3-4.6.5-4.2.2-5.8-1.8-9.5-1.4-2.4-2.5-5.4-2.5-6.7 0-1.3-.8-3-1.7-3.9-3.2-2.9-8.6-14.9-7.7-17.1.3-.9.2-2.2-.4-2.9-.5-.6-1.2-2.4-1.6-4-.3-1.5-1.3-2.7-2.1-2.7s-1.5-.6-1.5-1.4c0-.7-1.1-3.3-2.3-5.7-1.3-2.4-2.7-6.9-3.1-9.9-.4-3-1.3-6.2-2-7-.7-.8-1.9-3.1-2.6-5-.8-1.9-2.2-4.4-3.2-5.4-1-1.1-1.8-3.2-1.8-4.8 0-1.5-.4-2.8-.9-2.8-.4 0-1.1-2.8-1.4-6.1-.3-3.4-1-6.6-1.6-7.2-.6-.6-1.1-1.9-1.1-2.9s-.6-1.8-1.4-1.8c-1.8 0-2.3-1.8-2.5-9-.1-3.6-.8-6.4-2.1-8.2-3.8-5.2-6.1-10.1-5.5-11.6.5-1.3-1.2-6.6-4.6-14.7-.5-1.1-.8-3.5-.7-5.3 0-1.7-.6-4-1.4-5-3-3.2-4.8-9.2-4.2-13.3.4-2.5.2-4.4-.6-5.4-.6-.8-1.4-4.3-1.7-7.7-.3-3.5-1.1-7.7-1.9-9.5-.8-1.7-1.4-3.6-1.4-4.2 0-.6-.4-1.1-1-1.1-.5 0-1.3-1.2-1.6-2.8-.4-1.5-1.1-3.3-1.7-4-.6-.7-1.1-3.2-1.2-5.5-.1-2.3-.8-6.5-1.4-9.2-.7-2.8-1.4-6.4-1.5-8-.4-4.3-2.4-8.7-4.8-10.6-1.4-1.1-2.2-3-2.4-6-1.3-18.9-1.8-21.7-5.5-31.1-1.1-2.8-1.7-5.8-1.3-7.5.4-2 .1-3.3-1-4.2-.9-.8-1.6-2.4-1.6-3.7 0-1.2-.4-2.6-1-2.9-.5-.3-1-2.4-1-4.5 0-2.2-.4-5.9-1-8.2-.5-2.4-1.6-7.9-2.5-12.2-.9-4.4-2.2-9.3-2.9-11-1.8-4-3.6-11.7-3.6-15.3 0-1.6-.5-3.4-1.2-4.1-.7-.7-1.3-2-1.3-3 0-.9-.4-5.2-.9-9.5-.8-7-1.2-8.1-4.7-11.9-3.3-3.6-3.6-4.4-2.5-5.8.8-.8 1.7-2.5 2-3.7.8-2.6-2-20.3-3.4-21.7-.6-.6-1-2.6-1-4.6 0-1.9-.6-4.4-1.4-5.5-.7-1.1-1.6-3.6-2-5.5-.3-1.9-.8-4.4-1.1-5.5-.2-1.1-.9-4.9-1.5-8.5-.6-3.6-1.7-8.5-2.5-10.9-.8-2.5-1.5-5.6-1.5-7 0-1.4-.7-3.5-1.5-4.5-.8-1.1-1.5-3.8-1.5-6 0-2.3-.5-5.7-1-7.6-.6-1.9-1.3-6.1-1.5-9.2-.2-3.2-.6-6.2-1-6.7-.3-.6-.6-2.7-.7-4.8 0-2.1-.9-5.8-2-8.2-1.1-2.4-2.4-8.3-2.8-13.1-.5-4.9-1.3-9.8-2-11-.6-1.2-.8-3.4-.5-5.1.4-1.9.1-4-1-6.1-1.9-3.7-2.6-6.5-3-12.4-.2-2.2-1.4-6.9-2.8-10.5-3-7.5-4.3-12.4-5.2-19.8-.3-3-1.9-9.3-3.5-14-1.5-4.7-3.3-11.4-4-14.9-.6-3.5-1.5-7.3-2.1-8.5-.5-1.2-1.4-5.6-1.9-9.7-1.4-11.1-4.5-26.5-7-35-1.2-4.1-2.6-10.7-3.1-14.5-.5-3.9-1.6-9.1-2.4-11.7-.8-2.6-1.5-5.6-1.5-6.7 0-1.1-1.1-4-2.3-6.4-1.3-2.4-2.7-7.1-3-10.3-1.7-15.2-2.6-20.7-3.6-21.7-.6-.6-1.1-3-1.1-5.4 0-2.4-.4-4.3-.9-4.3-1.4 0-4.2-8.7-3.6-11.3.4-1.5.1-3-.9-3.9-1.3-1.4-2.4-8.3-4.1-27.2-.2-2.2-.9-4.2-1.4-4.6-1.1-.6-4.1-9.6-3.5-10.3.2-.2-.5-4.6-1.6-9.8-3.4-15.5-4.1-19.1-4.6-25.4-.6-8.2-2.5-15.5-4.6-18.5-.9-1.4-2.4-6.1-3.3-10.5-.9-4.4-2-9.2-2.6-10.6-.9-2.2-.6-3.3 1.3-6.4 2.2-3.5 2.5-3.6 6.9-3.1 3.7.4 5.4 0 8.5-1.9 2.1-1.4 4.7-2.5 5.7-2.5.9 0 1.7-.5 1.7-1 0-.6.4-1 .9-1 2.3 0 12.1-6.6 12.1-8.1 0-.9 1.4-2.2 3.3-3 3.6-1.4 4.7-2.6 4.7-5.1 0-2.2-3.5-2.7-8.9-1.1-2.5.8-5 .9-5.9.4-2.8-1.6-9.7 1.4-7 3 1.8 1.2-.5 1.1-5.4 0-2.8-.7-4-.5-4.9.5-.6.8-2.3 1.4-3.8 1.4s-3.1.8-3.9 2c-.7 1.1-1.8 2-2.6 2-.7 0-1.9.7-2.6 1.5-.7.8-1.8 1.5-2.4 1.4-2.4-.1-5.8-6.2-7.3-13-.8-3.9-1.9-8.3-2.5-9.7-.6-1.5-1.2-4-1.4-5.5-.2-1.5-1-4-1.8-5.5-.7-1.5-1.6-4.5-1.9-6.7-.8-5.8-1.2-7.4-2-8.1-.4-.4-.7-1.5-.7-2.4 0-.9-.5-2.1-1.1-2.7-.5-.5-1.2-3.7-1.4-7-.1-3.5-1.1-7.6-2.4-10.1-1.5-2.9-2.1-5.8-2-10.4 0-3.5-.4-7.7-1.1-9.3-1.1-2.8-2.8-10.7-5.1-23.5-1-6-2.8-11.2-4.2-12.1-.4-.3-1-3-1.2-5.9-.2-2.9-1-6-1.8-6.9-.7-.9-1.4-3.1-1.5-4.9-.2-1.9-.9-4.6-1.7-6.2-2-3.9-3.7-10.9-3.5-15.1 0-2.6-.6-4.3-2.7-6.3-2.4-2.4-2.6-2.9-1.1-3.7 1.5-.8 1.5-1.4-.4-6.6-1.1-3.2-2.8-6.9-3.8-8.3-1-1.4-1.8-3.7-1.9-5-.1-3.1-.8-10.1-1.6-16-.4-2.5-1.5-6.4-2.6-8.7-1.1-2.3-1.8-4.7-1.4-5.3.4-.6 0-2.1-.7-3.3-1.5-2.2-3.7-10-3.7-12.7 0-2-3.4-14.2-4.4-15.8-.5-.6-.6-1.6-.3-2 .7-1.2-4-19-5.4-20.7-.7-.8-.9-1.5-.5-1.5.5 0 .1-.8-.7-1.8-.9-.9-1.8-3.8-2.1-6.4-.3-2.6-1-5.5-1.5-6.5s-.7-2.4-.5-3.1c.3-.7-.2-2.3-.9-3.5-2.1-3.2-3.9-11.3-3.2-14.2.3-1.4.2-3.1-.4-3.8-2.7-3.3-4.8-8.6-5.1-12.7-.3-5.7-1-8.2-2.7-9.5-.8-.5-2-4.2-2.8-8-2.3-11.6-4.3-17.7-6-18.7-.9-.5-1.6-1.8-1.6-2.9 0-1.1-1.2-3.1-2.6-4.4-1.5-1.4-2.3-2.5-1.9-2.5.4 0 .3-.6-.3-1.3-.6-.7-.7-1.8-.3-2.6.5-.8 0-3.4-1.1-6.5-2.1-5.3-3.5-11.1-4.5-18.1-.3-2.2-.8-4.2-1.2-4.5-3.3-2.6-6.5-14.1-5.5-19.5.4-2.3-.2-4.8-2.5-9.6-1.6-3.5-3.3-8.4-3.7-10.9-.4-2.5-1.5-5.9-2.5-7.6-1.1-1.7-1.9-3.9-1.9-4.8 0-.9-.8-3.3-1.9-5.4-1-2-2.1-5.5-2.5-7.7-1-6.2-3.8-14.8-5.2-16.5-.7-.9-1.3-2.4-1.2-3.5.2-4.2-3.2-16.7-5.2-19.2-1.1-1.4-2-3.4-2-4.5 0-1-1.1-2.9-2.5-4.2-1.8-1.6-2.5-3.4-2.5-5.8 0-2-.7-4.1-1.5-4.8-.9-.7-1.5-2.9-1.5-5.4 0-2.2-.7-5.4-1.5-6.9-.8-1.6-1.7-5.2-2-8-.6-4.8-1.4-7.5-3.5-11.7-.7-1.5-2.2-9-2.1-10.7 0-.5-1-1.8-2.1-3.1-1.2-1.2-1.8-2.2-1.5-2.2.4 0-.2-1.7-1.3-3.7-1.1-2.1-2-4.9-2-6.4 0-2.4-.9-3.2-6.2-5.6-.4-.2-.9.1-1.3.7zm204 603c.3.5.1 1-.4 1-.6 0-1.1-.5-1.1-1 0-.6.2-1 .4-1 .3 0 .8.4 1.1 1zm-18.5 1c0 .5-.2 1-.4 1-.3 0-.8-.5-1.1-1-.3-.6-.1-1 .4-1 .6 0 1.1.4 1.1 1zm-12.5 7c-.3.5-1.2 1-1.8 1-.7 0-.6-.4.3-1 1.9-1.2 2.3-1.2 1.5 0zm-369 275.2c.4.3.2.9-.3 1.2-.5.3-1.5-.1-2.1-.8-1-1.1-.9-1.4.3-1.2.9.1 1.8.5 2.1.8zm496.5 284.6c0 .4-.5 1.4-1 2.2-.9 1.3-1.1 1.3-1.9 0-.6-.9-.6-1.9.1-2.7 1-1.2 2.8-.9 2.8.5zm90.5 332.2c-.3.5-.1 1 .4 1 .6 0 1.1 1.1 1.1 2.5s-.4 2.5-1 2.5c-.5 0-1-.8-1-1.7 0-.9-.3-1.3-.7-.9-.5.4-.8 1.8-.8 2.9 0 1.6-.5 2.1-2 1.9-2.7-.5-3-.9-1.6-2.6.7-.8.9-2.1.5-2.7-.5-.9-.2-1 .9-.6 1 .4 1.8-.1 2.2-1.4.4-1 1.1-1.9 1.6-1.9.6 0 .7.4.4 1zm12.5 8.4c0 2-1.4 2.8-3.6 1.9-1.6-.6-1.6-.7.2-2 2.3-1.7 3.4-1.7 3.4.1zm-2 6c0 .3-.4.8-1 1.1-.5.3-1 .1-1-.4 0-.6.5-1.1 1-1.1.6 0 1 .2 1 .4zm8.4 4.9c1.1 1 1.1 1.5 0 2.5-.7.6-2 .9-2.8.6-1.2-.5-1.3-.9-.3-2.5 1.4-2.3 1.5-2.3 3.1-.6zm-13.4 2.3c0 .8-.6 1.4-1.4 1.4-1.2 0-1.4-1-.7-3.8.3-1 2.1 1.1 2.1 2.4zm3.7 2.1c-1.1 1-2.6-.8-2-2.3.5-1.5.7-1.4 1.5.1.6.9.7 1.9.5 2.2zm3.8-1.7c-.3.5-1.1 1-1.6 1-.6 0-.7-.5-.4-1 .3-.6 1.1-1 1.6-1 .6 0 .7.4.4 1zm15.5 8c0 .5-.5 1-1.1 1-.5 0-.7-.5-.4-1 .3-.6.8-1 1.1-1 .2 0 .4.4.4 1zm-15.2 2.4c-.7.8-1.5 1.2-1.7 1.1-.5-.6 1-2.5 2-2.5.5 0 .4.6-.3 1.4zm5.9 1.9c-.2.6-.9 1.3-1.5 1.5-.8.2-1-.3-.5-1.4.5-1.3.3-1.5-.7-.9-.8.5-1.1.4-.6-.3.8-1.4 3.8-.4 3.3 1.1zM844 2211.6c0 .8-.5 1.2-1 .9-.6-.4-.8-1.1-.5-1.6.9-1.4 1.5-1.1 1.5.7z"/><path d="M1089.6 728.9c-.3.5-.1 2.3.5 4 1.5 4.1 4.5 3.9 4.2-.4-.3-3.5-3.3-5.9-4.7-3.6z"/></svg>